<svg width="678" height="140" viewBox="0 0 678 140" fill="none" xmlns="http://www.w3.org/2000/svg">
<path d="M45.2586 139.991C16.8239 139.991 0 119.123 0 74.3452C0 28.4118 21.7999 4.68459 50.2347 4.68459C56.925 4.79092 63.5044 6.45611 69.4768 9.55455C75.4491 12.653 80.6584 17.1038 84.7117 22.5713L75.8259 31.5146C68.9552 25.3908 60.2708 21.8318 51.1825 21.4153C32.9961 21.4153 21.2076 37.9635 21.2076 70.634C21.2076 108.415 32.0483 123.016 48.6944 123.016C54.8448 123.195 60.8681 121.197 65.7553 117.358V80.1858H49.1684V64.611H86.1335V124.537C74.8648 134.749 60.2842 140.261 45.2586 139.991ZM156.391 59.3789C153.791 58.5776 151.105 58.1076 148.394 57.9795C142.884 57.9795 137.79 62.2991 128.489 74.1627V138.044H109V41.0663H125.113L126.771 57.6145C137.02 43.9866 143.477 39.3628 150.467 39.3628C153.381 39.4019 156.244 40.1526 158.82 41.553L156.391 59.3789ZM225.167 138.044L223.627 127.519C215.757 135.209 205.344 139.556 194.482 139.686C175.881 139.686 166.047 129.952 166.047 112.795C166.047 92.962 181.034 79.6991 214.149 79.6991H220.961V71.2425C220.961 59.5614 215.038 53.9033 201.413 53.9033C191.945 54.165 182.59 56.0783 173.748 59.5614L170.904 47.3936C182.082 42.2207 194.189 39.5059 206.448 39.4237C230.143 39.4237 240.214 51.1047 240.214 68.8089V138.165L225.167 138.044ZM220.961 92.8403H212.846C191.342 92.8403 185.418 100.202 185.418 110.362C185.215 112.381 185.452 114.422 186.112 116.336C186.772 118.249 187.837 119.988 189.232 121.427C190.627 122.865 192.316 123.967 194.177 124.652C196.038 125.338 198.024 125.589 199.991 125.389C207.868 124.736 215.28 121.296 220.961 115.655V92.8403ZM317.225 138.044L315.744 127.519C307.846 135.203 297.418 139.548 286.539 139.686C267.938 139.686 258.104 129.952 258.104 112.795C258.104 92.962 273.092 79.6991 306.266 79.6991H313.078V71.2425C313.078 59.5614 307.154 53.9033 293.529 53.9033C284.062 54.165 274.707 56.0783 265.865 59.5614L263.021 47.3936C274.201 42.2292 286.306 39.5149 298.564 39.4237C322.26 39.4237 332.271 51.1047 332.271 68.8089V138.165L317.225 138.044ZM313.078 92.8403H304.962C283.162 92.8403 277.475 100.263 277.475 110.362C277.283 112.379 277.528 114.415 278.192 116.323C278.855 118.232 279.921 119.966 281.314 121.402C282.707 122.838 284.391 123.94 286.247 124.629C288.102 125.319 290.083 125.578 292.048 125.389C299.95 124.765 307.389 121.321 313.078 115.655V92.8403ZM372.317 139.382C360.469 139.382 355.078 135.853 355.078 120.096V0H374.983V112.37C374.983 123.686 376.345 125.45 381.795 125.45C383.513 125.45 385.587 125.45 386.949 125.45L387.897 137.618C382.939 138.999 377.805 139.594 372.672 139.382H372.317Z" fill="white"/>
<path d="M456.072 138.035H431.784C416.748 95.1002 404.459 51.2026 394.996 6.62256H417.388C424.023 41.6658 434.805 78.8384 445.645 116.133C456.258 80.193 464.725 43.6216 471 6.62256H491.319C482.972 51.315 471.186 95.2569 456.072 138.035ZM612.462 138.035C611.692 99.8278 609.027 60.3433 606.539 33.27L574.313 138.035H557.429L524.848 33.27C522.419 62.2902 520.701 99.8278 520.109 138.035H500.619C501.745 95.4474 504.766 49.4532 509.861 6.62256H536.814L567.5 103.174L598.245 6.62256H623.777C628.694 49.2098 632.485 95.3866 633.611 138.035H612.462ZM648.48 124.65H643.859V121.973H656.477V124.528H651.857V137.913H648.48V124.65ZM659.794 121.973H665.244L668.562 133.654L672.116 121.973H677.448V138.035H674.071V124.528L669.865 138.278H667.081L662.934 124.528V138.278H659.794V121.973Z" fill="#F29111"/>
</svg>